<svg id="Layer_1" data-name="Layer 1" xmlns="http://www.w3.org/2000/svg" viewBox="0 0 133.5 66.5"><defs><style>.cls-1{fill:#231f20}</style></defs><title>Artboard 15</title><path class="cls-1" d="M73.92 8H37.31v49.74h38.12V8zm-4 10a2.58 2.58 0 0 1-1.71.61 2.52 2.52 0 0 1-1.67-.57 1.82 1.82 0 0 1-.68-1.47 3 3 0 0 1 .63-1.76 5.88 5.88 0 0 0-1.78-.39 2.81 2.81 0 0 0-1.54.64 6.26 6.26 0 0 0-1.59 1.7q-2.71 4.17-5.28 15.39h5.53l-.37 1.53h-5.53L55.38 36a82.62 82.62 0 0 1-2.57 9.21q-2 5.07-5 6.41a6.39 6.39 0 0 1-2.58.56 2.69 2.69 0 0 1-1.84-.5 1.59 1.59 0 0 1-.53-1.2 1.74 1.74 0 0 1 .46-1.21 1.51 1.51 0 0 1 1.17-.51 2 2 0 0 1 1.17.32 1 1 0 0 1 .46.89 2 2 0 0 1-.32 1.08q2.38-.37 4.28-9 .3-1.37.68-3.25t.54-2.8l.55-2.36h-4.34l.37-1.53h4.3Q54.93 21 58.64 16.56A9.33 9.33 0 0 1 66 12.93a6.34 6.34 0 0 1 3.28.79 2.8 2.8 0 0 1 1.33 2.62A2.07 2.07 0 0 1 69.9 18zM6.43 8v49.74h28.4V8zm16 33.54a5.62 5.62 0 0 0 3.67-1.44l1 1.65a8.44 8.44 0 0 1-5.75 1.91c-4.85 0-8.23-3.45-8.23-8.56s3.38-9 8.48-9a9.54 9.54 0 0 1 6.09 1.9l-1.54 2.5a5.31 5.31 0 0 0-4.31-2.45c-2.95 0-4.6 2.84-4.6 6.79-.01 3.78 1.82 6.66 5.2 6.66zM77.91 8v49.74h49.78V8zM110 43.08L109.49 24h-.25l-6 18.37h-3.79L93.88 24h-.25l-.54 19.13H90.4l.68-22.47h7.08l4.42 14.88h.25l4.71-14.88h7.08l.65 22.47z"/></svg>